<svg width="24" height="24" viewBox="0 0 24 24" fill="none" xmlns="http://www.w3.org/2000/svg">
<path d="M23.0001 9.5C22.9979 11.2233 22.3124 12.8753 21.0939 14.0939C19.8754 15.3124 18.2233 15.9979 16.5001 16H4.41406L7.70706 19.293C7.80257 19.3852 7.87875 19.4956 7.93116 19.6176C7.98357 19.7396 8.01115 19.8708 8.01231 20.0036C8.01346 20.1364 7.98816 20.2681 7.93788 20.391C7.8876 20.5138 7.81334 20.6255 7.71945 20.7194C7.62556 20.8133 7.51391 20.8875 7.39101 20.9378C7.26811 20.9881 7.13643 21.0134 7.00365 21.0123C6.87087 21.0111 6.73965 20.9835 6.61765 20.9311C6.49565 20.8787 6.3853 20.8025 6.29306 20.707L1.29306 15.707C1.19993 15.6141 1.12604 15.5038 1.07563 15.3823C1.02522 15.2608 0.999268 15.1305 0.999268 14.999C0.999268 14.8675 1.02522 14.7372 1.07563 14.6157C1.12604 14.4942 1.19993 14.3839 1.29306 14.291L6.29306 9.291C6.48166 9.10884 6.73426 9.00805 6.99646 9.01033C7.25865 9.0126 7.50947 9.11777 7.69487 9.30318C7.88028 9.48859 7.98545 9.7394 7.98773 10.0016C7.99001 10.2638 7.88921 10.5164 7.70706 10.705L4.41406 14H16.5001C17.6935 14 18.8381 13.5259 19.682 12.682C20.5259 11.8381 21.0001 10.6935 21.0001 9.5C21.0001 8.30653 20.5259 7.16193 19.682 6.31802C18.8381 5.47411 17.6935 5 16.5001 5H12.0001C11.7348 5 11.4805 4.89464 11.2929 4.70711C11.1054 4.51957 11.0001 4.26522 11.0001 4C11.0001 3.73478 11.1054 3.48043 11.2929 3.29289C11.4805 3.10536 11.7348 3 12.0001 3H16.5001C18.2233 3.00212 19.8754 3.68762 21.0939 4.90614C22.3124 6.12467 22.9979 7.77674 23.0001 9.5Z" fill="#848484"/>
</svg>
