<svg width="24" height="24" viewBox="0 0 24 24" fill="none" xmlns="http://www.w3.org/2000/svg">
<path d="M20.25 9.75C20.2498 9.41765 20.1391 9.09479 19.9355 8.83212C19.7319 8.56945 19.4468 8.38184 19.125 8.29875C19.0492 6.99347 18.5211 5.75536 17.6314 4.79725C16.7418 3.83914 15.5461 3.22088 14.25 3.04875V2.625C14.25 2.32663 14.1315 2.04048 13.9205 1.8295C13.7095 1.61853 13.4234 1.5 13.125 1.5H10.875C10.5766 1.5 10.2905 1.61853 10.0795 1.8295C9.86853 2.04048 9.75001 2.32663 9.75001 2.625V3.05625C8.45391 3.22838 7.25826 3.84664 6.36859 4.80475C5.47891 5.76286 4.95079 7.00097 4.87501 8.30625C4.54829 8.38967 4.25921 8.58074 4.05442 8.84863C3.84963 9.11652 3.74107 9.4456 3.74627 9.78276C3.75147 10.1199 3.87012 10.4455 4.08308 10.7069C4.29604 10.9684 4.59087 11.1504 4.92001 11.2238L6.89251 21C6.97895 21.4235 7.20907 21.8041 7.54392 22.0775C7.87876 22.3508 8.29776 22.5001 8.73001 22.5H15.27C15.7023 22.5001 16.1213 22.3508 16.4561 22.0775C16.7909 21.8041 17.0211 21.4235 17.1075 21L19.065 11.2238C19.4017 11.1514 19.7032 10.9655 19.919 10.6971C20.1348 10.4288 20.2517 10.0943 20.25 9.75ZM10.5 2.625C10.5 2.52554 10.5395 2.43016 10.6098 2.35984C10.6802 2.28951 10.7756 2.25 10.875 2.25H13.125C13.2245 2.25 13.3198 2.28951 13.3902 2.35984C13.4605 2.43016 13.5 2.52554 13.5 2.625V3H10.5V2.625ZM10.5 3.75H13.5C14.7305 3.74635 15.9169 4.20818 16.8211 5.04281C17.7252 5.87744 18.2804 7.02313 18.375 8.25H5.62501C5.71966 7.02313 6.27476 5.87744 7.17895 5.04281C8.08313 4.20818 9.2695 3.74635 10.5 3.75ZM18 12.75H6.00001L5.70001 11.25H18.2925L18 12.75ZM17.55 15H15.75V13.5H17.8425L17.55 15ZM17.1 17.25H15.75V15.75H17.3925L17.1 17.25ZM16.65 19.5H15.75V18H16.9425L16.65 19.5ZM13.5 19.5V18H15V19.5H13.5ZM11.25 19.5V18H12.75V19.5H11.25ZM9.00001 19.5V18H10.5V19.5H9.00001ZM7.35751 19.5L7.05751 18H8.25001V19.5H7.35751ZM10.5 13.5V15H9.00001V13.5H10.5ZM12.75 13.5V15H11.25V13.5H12.75ZM15 13.5V15H13.5V13.5H15ZM11.25 15.75H12.75V17.25H11.25V15.75ZM10.5 17.25H9.00001V15.75H10.5V17.25ZM13.5 15.75H15V17.25H13.5V15.75ZM8.25001 15H6.45751L6.15751 13.5H8.25001V15ZM8.25001 15.75V17.25H6.90751L6.60751 15.75H8.25001ZM15.27 21.75H8.73001C8.47013 21.7499 8.21832 21.6598 8.01734 21.495C7.81636 21.3303 7.67861 21.101 7.62751 20.8463L7.50001 20.25H16.5L16.38 20.8463C16.3286 21.1023 16.1898 21.3325 15.9873 21.4974C15.7848 21.6623 15.5312 21.7516 15.27 21.75ZM18.75 10.5H5.25001C5.05109 10.5 4.86033 10.421 4.71968 10.2803C4.57902 10.1397 4.50001 9.94891 4.50001 9.75C4.50001 9.55109 4.57902 9.36032 4.71968 9.21967C4.86033 9.07902 5.05109 9 5.25001 9H18.75C18.9489 9 19.1397 9.07902 19.2803 9.21967C19.421 9.36032 19.5 9.55109 19.5 9.75C19.5 9.94891 19.421 10.1397 19.2803 10.2803C19.1397 10.421 18.9489 10.5 18.75 10.5Z" fill="#848484"/>
</svg>
