<svg width="40" height="40" viewBox="0 0 40 40" fill="none" xmlns="http://www.w3.org/2000/svg">
<path d="M33.0605 11.2219H31.6147V20.0196H8.38573V1.17302H15.4219V11.1828H24.193V1.17302H31.6147V9.97067H33.0605V0H6.93994V21.1926H33.0605V11.2219ZM22.7472 10.0098H16.8677V1.17302H22.7472V10.0098Z" fill="#848484"/>
<path d="M7.49641 24.6465C7.05091 24.285 6.45852 24.086 5.82855 24.086C5.64879 24.086 5.47231 24.1027 5.30122 24.1343V20.2932C5.30122 19.1075 4.11211 18.1427 2.65061 18.1427C1.18911 18.1427 0 19.1075 0 20.2932V31.7153C0 32.3732 0.31576 32.9918 0.889255 33.4571L6.16869 37.7404V40H7.61448V37.2546L1.91162 32.6276C1.61119 32.384 1.44579 32.0599 1.44579 31.7153V20.2932C1.44579 19.7542 1.98622 19.3157 2.65061 19.3157C3.315 19.3157 3.85543 19.7542 3.85543 20.2932V24.9506C3.60473 25.2596 3.46989 25.6211 3.46989 25.9997C3.46989 26.5108 3.71519 26.9914 4.16069 27.3529L9.4647 31.6562L10.4871 30.8267L5.18305 26.5234C5.01062 26.3836 4.91568 26.1975 4.91568 25.9997C4.91568 25.8019 5.01062 25.6159 5.18305 25.476C5.35539 25.3362 5.58459 25.2592 5.82845 25.2592C6.07221 25.2592 6.30151 25.3362 6.47385 25.4761L14.9558 32.3578C15.2562 32.6015 15.4216 32.9256 15.4216 33.2702V40H16.8674V33.2701C16.8674 32.6121 16.5517 31.9935 15.9782 31.5282L7.49641 24.6465Z" fill="#848484"/>
<path d="M37.3496 18.1427C35.8881 18.1427 34.699 19.1075 34.699 20.2932V24.1343C34.5279 24.1028 34.3514 24.086 34.1716 24.086C33.5417 24.086 32.9493 24.285 32.5038 24.6465L24.0218 31.5282C23.4484 31.9935 23.1326 32.6121 23.1326 33.2701V40H24.5784V33.2701C24.5784 32.9254 24.7438 32.6014 25.0442 32.3577L33.5261 25.476C33.6985 25.3361 33.9278 25.259 34.1715 25.259C34.4154 25.259 34.6446 25.3361 34.817 25.476C34.9894 25.6158 35.0843 25.8017 35.0843 25.9996C35.0843 26.1974 34.9894 26.3834 34.8169 26.5232L29.5129 30.8266L30.5353 31.6561L35.8393 27.3527C36.2848 26.9913 36.5301 26.5106 36.5301 25.9995C36.5301 25.6209 36.3953 25.2594 36.1446 24.9504V20.2932C36.1446 19.7542 36.685 19.3157 37.3494 19.3157C38.0138 19.3157 38.5542 19.7542 38.5542 20.2932V31.7153C38.5542 32.0599 38.3888 32.384 38.0884 32.6276L32.3855 37.2546V40H33.8313V37.7404L39.1107 33.4571C39.6841 32.9918 40 32.3732 40 31.7153V20.2932C40.0002 19.1075 38.8111 18.1427 37.3496 18.1427Z" fill="#848484"/>
<path d="M12.2893 37.5366H13.8315V38.7096H12.2893V37.5366Z" fill="#848484"/>
<path d="M26.1689 37.5366H27.7111V38.7096H26.1689V37.5366Z" fill="#848484"/>
<path d="M10.7471 16.8915H12.2892V18.0645H10.7471V16.8915Z" fill="#848484"/>
<path d="M13.8315 16.8915H15.3737V18.0645H13.8315V16.8915Z" fill="#848484"/>
</svg>
