<svg width="66" height="66" viewBox="0 0 66 66" fill="none" xmlns="http://www.w3.org/2000/svg">
<circle cx="33" cy="33" r="33" fill="url(#paint0_linear_152_5)"/>
<path d="M16.7134 38.92C16.8201 40.0667 17.2201 41 17.9134 41.72C18.6334 42.4133 19.5934 42.76 20.7934 42.76C22.0201 42.76 22.9934 42.44 23.7134 41.8C24.4601 41.1333 25.0334 40.32 25.4334 39.36C25.8334 38.3733 26.1001 37.3333 26.2334 36.24C26.3934 35.12 26.5134 34.0933 26.5934 33.16L26.5134 33.08C25.9001 34.1733 25.0601 35.0133 23.9934 35.6C22.9268 36.16 21.7534 36.44 20.4734 36.44C19.1401 36.44 17.9268 36.2133 16.8334 35.76C15.7668 35.3067 14.8468 34.68 14.0734 33.88C13.3001 33.0533 12.7001 32.0667 12.2734 30.92C11.8468 29.7467 11.6334 28.44 11.6334 27C11.6334 25.64 11.8468 24.3867 12.2734 23.24C12.7001 22.0667 13.3268 21.0533 14.1534 20.2C14.9801 19.32 15.9934 18.64 17.1934 18.16C18.3934 17.68 19.7534 17.44 21.2734 17.44C23.2468 17.44 24.8734 17.8267 26.1534 18.6C27.4334 19.3467 28.4334 20.3867 29.1534 21.72C29.9001 23.0267 30.4201 24.5733 30.7134 26.36C31.0068 28.1467 31.1534 30.0533 31.1534 32.08C31.1534 33.76 30.9668 35.4533 30.5934 37.16C30.2468 38.8667 29.6601 40.4267 28.8334 41.84C28.0068 43.2267 26.9134 44.36 25.5534 45.24C24.2201 46.12 22.5668 46.56 20.5934 46.56C19.4734 46.56 18.4201 46.3733 17.4334 46C16.4468 45.6267 15.5668 45.1067 14.7934 44.44C14.0468 43.7733 13.4334 42.9733 12.9534 42.04C12.4734 41.1067 12.2068 40.0667 12.1534 38.92H16.7134ZM21.0734 21.24C20.2468 21.24 19.5268 21.4 18.9134 21.72C18.3001 22.0133 17.7934 22.4267 17.3934 22.96C16.9934 23.4933 16.6868 24.1067 16.4734 24.8C16.2868 25.4933 16.1934 26.2133 16.1934 26.96C16.1934 27.7333 16.2868 28.48 16.4734 29.2C16.6868 29.8933 16.9934 30.5067 17.3934 31.04C17.7934 31.5733 18.3001 32.0133 18.9134 32.36C19.5268 32.68 20.2468 32.84 21.0734 32.84C21.9268 32.84 22.6734 32.68 23.3134 32.36C23.9534 32.04 24.4734 31.6133 24.8734 31.08C25.3001 30.52 25.6201 29.8933 25.8334 29.2C26.0468 28.48 26.1534 27.7333 26.1534 26.96C26.1534 26.2133 26.0468 25.4933 25.8334 24.8C25.6201 24.1067 25.3001 23.5067 24.8734 23C24.4734 22.4667 23.9534 22.04 23.3134 21.72C22.6734 21.4 21.9268 21.24 21.0734 21.24ZM43.62 21.04C42.3933 21.04 41.3533 21.4133 40.5 22.16C39.6467 22.88 39.22 23.9333 39.22 25.32C39.22 26.6533 39.6333 27.68 40.46 28.4C41.2867 29.0933 42.34 29.44 43.62 29.44C44.9 29.44 45.9533 29.0933 46.78 28.4C47.6067 27.68 48.02 26.6533 48.02 25.32C48.02 23.9333 47.5933 22.88 46.74 22.16C45.8867 21.4133 44.8467 21.04 43.62 21.04ZM43.62 46.56C42.2067 46.56 40.8867 46.36 39.66 45.96C38.46 45.56 37.42 44.9867 36.54 44.24C35.66 43.4667 34.9667 42.5333 34.46 41.44C33.98 40.3467 33.74 39.12 33.74 37.76C33.74 36 34.1933 34.52 35.1 33.32C36.0333 32.12 37.2867 31.32 38.86 30.92V30.84C37.58 30.36 36.5933 29.6267 35.9 28.64C35.2333 27.6267 34.9 26.44 34.9 25.08C34.9 22.68 35.6467 20.8133 37.14 19.48C38.66 18.12 40.82 17.44 43.62 17.44C46.42 17.44 48.5667 18.12 50.06 19.48C51.58 20.8133 52.34 22.68 52.34 25.08C52.34 26.44 51.9933 27.6267 51.3 28.64C50.6333 29.6267 49.66 30.36 48.38 30.84V30.92C49.9533 31.32 51.1933 32.12 52.1 33.32C53.0333 34.52 53.5 36 53.5 37.76C53.5 39.12 53.2467 40.3467 52.74 41.44C52.26 42.5333 51.58 43.4667 50.7 44.24C49.82 44.9867 48.7667 45.56 47.54 45.96C46.34 46.36 45.0333 46.56 43.62 46.56ZM43.62 42.96C45.14 42.96 46.4067 42.5067 47.42 41.6C48.4333 40.6933 48.94 39.4133 48.94 37.76C48.94 36.2133 48.4333 35.0133 47.42 34.16C46.4067 33.28 45.14 32.84 43.62 32.84C42.1 32.84 40.8333 33.28 39.82 34.16C38.8067 35.0133 38.3 36.2133 38.3 37.76C38.3 39.4133 38.8067 40.6933 39.82 41.6C40.8333 42.5067 42.1 42.96 43.62 42.96Z" fill="white"/>
<defs>
<linearGradient id="paint0_linear_152_5" x1="48.18" y1="33" x2="-17.82" y2="53.46" gradientUnits="userSpaceOnUse">
<stop stop-color="#A6BC57"/>
<stop offset="1" stop-color="#6D9B08"/>
</linearGradient>
</defs>
</svg>
