<svg width="83" height="58" viewBox="0 0 83 58" fill="none" xmlns="http://www.w3.org/2000/svg">
<path d="M4.48688 43.4C5.12688 46.92 6.64688 49.8 9.04688 52.04C11.5002 54.2267 14.5935 55.32 18.3269 55.32C20.8335 55.32 22.9935 54.8667 24.8069 53.96C26.6735 53 28.2469 51.7733 29.5269 50.28C30.8069 48.7333 31.8469 46.9733 32.6469 45C33.4469 43.0267 34.0602 41 34.4869 38.92C34.9135 36.84 35.2069 34.7867 35.3669 32.76C35.5269 30.7333 35.6069 28.8933 35.6069 27.24L35.4469 27.08C34.8602 28.6267 34.0869 30.0667 33.1269 31.4C32.2202 32.7333 31.1002 33.9333 29.7669 35C28.4335 36.0133 26.8869 36.8133 25.1269 37.4C23.4202 37.9867 21.5002 38.28 19.3669 38.28C16.5935 38.28 14.0602 37.8267 11.7669 36.92C9.47354 35.96 7.50021 34.6533 5.84688 33C4.24688 31.2933 2.99354 29.2933 2.08688 27C1.18021 24.7067 0.726875 22.1733 0.726875 19.4C0.726875 16.68 1.18021 14.2 2.08688 11.96C3.04688 9.66667 4.35354 7.69333 6.00688 6.04C7.66021 4.38666 9.60688 3.10666 11.8469 2.2C14.1402 1.29333 16.6469 0.839998 19.3669 0.839998C20.7535 0.839998 22.1935 0.973331 23.6869 1.24C25.2335 1.50666 26.7002 1.98666 28.0869 2.68C29.5269 3.32 30.8869 4.25333 32.1669 5.48C33.4469 6.70666 34.5669 8.28 35.5269 10.2C36.4869 12.0667 37.2335 14.36 37.7669 17.08C38.3535 19.8 38.6469 23 38.6469 26.68C38.6469 28.92 38.5402 31.2667 38.3269 33.72C38.1135 36.12 37.7135 38.4933 37.1269 40.84C36.5935 43.1333 35.8469 45.32 34.8869 47.4C33.9269 49.48 32.6735 51.32 31.1269 52.92C29.6335 54.4667 27.8202 55.6933 25.6869 56.6C23.6069 57.5067 21.1535 57.96 18.3269 57.96C13.6335 57.96 9.76688 56.7067 6.72688 54.2C3.74021 51.6933 1.98021 48.0933 1.44688 43.4H4.48688ZM19.3669 35.64C21.6602 35.64 23.7402 35.2133 25.6069 34.36C27.5269 33.5067 29.1802 32.36 30.5669 30.92C31.9535 29.4267 33.0202 27.6933 33.7669 25.72C34.5669 23.7467 34.9669 21.64 34.9669 19.4C34.9669 17.2133 34.5669 15.16 33.7669 13.24C32.9669 11.2667 31.8735 9.56 30.4869 8.12C29.1002 6.68 27.4469 5.56 25.5269 4.76C23.6602 3.90666 21.6069 3.48 19.3669 3.48C17.1269 3.48 15.0469 3.90666 13.1269 4.76C11.2602 5.61333 9.63354 6.76 8.24688 8.2C6.86021 9.64 5.76688 11.3467 4.96688 13.32C4.16688 15.24 3.76688 17.2667 3.76688 19.4C3.76688 21.5867 4.16688 23.6667 4.96688 25.64C5.76688 27.6133 6.86021 29.3467 8.24688 30.84C9.63354 32.28 11.2602 33.4533 13.1269 34.36C15.0469 35.2133 17.1269 35.64 19.3669 35.64ZM44.62 41.16C44.62 37.16 45.6867 33.9067 47.82 31.4C50.0067 28.84 53.02 27.3467 56.86 26.92V26.76C53.5 26.12 50.9667 24.7333 49.26 22.6C47.5533 20.4133 46.7 17.7733 46.7 14.68C46.7 12.0667 47.18 9.88 48.14 8.12C49.1 6.36 50.38 4.94666 51.98 3.88C53.58 2.81333 55.3933 2.04 57.42 1.56C59.4467 1.08 61.5533 0.839998 63.74 0.839998C65.8733 0.839998 67.9533 1.08 69.98 1.56C72.06 2.04 73.9 2.81333 75.5 3.88C77.1 4.94666 78.38 6.36 79.34 8.12C80.3 9.88 80.78 12.0667 80.78 14.68C80.78 17.7733 79.9267 20.4133 78.22 22.6C76.5133 24.7333 73.98 26.12 70.62 26.76V26.92C74.46 27.3467 77.4467 28.84 79.58 31.4C81.7667 33.9067 82.86 37.16 82.86 41.16C82.86 44.04 82.3533 46.5467 81.34 48.68C80.3267 50.76 78.9667 52.4933 77.26 53.88C75.5533 55.2667 73.5267 56.3067 71.18 57C68.8333 57.64 66.3533 57.96 63.74 57.96C61.0733 57.96 58.5667 57.64 56.22 57C53.9267 56.3067 51.9267 55.2667 50.22 53.88C48.5133 52.4933 47.1533 50.76 46.14 48.68C45.1267 46.5467 44.62 44.04 44.62 41.16ZM63.74 25.64C65.5 25.64 67.2067 25.4533 68.86 25.08C70.5667 24.6533 72.06 24.0133 73.34 23.16C74.6733 22.2533 75.74 21.1067 76.54 19.72C77.34 18.3333 77.74 16.6533 77.74 14.68C77.74 12.6 77.34 10.84 76.54 9.4C75.7933 7.96 74.7533 6.81333 73.42 5.96C72.14 5.05333 70.6467 4.41333 68.94 4.04C67.2867 3.66666 65.5533 3.48 63.74 3.48C61.9267 3.48 60.1667 3.66666 58.46 4.04C56.8067 4.41333 55.3133 5.05333 53.98 5.96C52.7 6.81333 51.66 7.96 50.86 9.4C50.1133 10.84 49.74 12.6 49.74 14.68C49.74 16.6533 50.14 18.3333 50.94 19.72C51.74 21.1067 52.78 22.2533 54.06 23.16C55.3933 24.0133 56.8867 24.6533 58.54 25.08C60.2467 25.4533 61.98 25.64 63.74 25.64ZM47.66 41.16C47.66 43.6133 48.0867 45.7467 48.94 47.56C49.8467 49.32 51.02 50.7867 52.46 51.96C53.9533 53.08 55.66 53.9333 57.58 54.52C59.5533 55.0533 61.6067 55.32 63.74 55.32C65.8733 55.32 67.9 55.0533 69.82 54.52C71.74 53.9333 73.4467 53.08 74.94 51.96C76.4333 50.7867 77.6067 49.32 78.46 47.56C79.3667 45.7467 79.82 43.6133 79.82 41.16C79.82 38.8667 79.3933 36.92 78.54 35.32C77.6867 33.6667 76.5133 32.3333 75.02 31.32C73.5267 30.2533 71.7933 29.48 69.82 29C67.9 28.52 65.8733 28.28 63.74 28.28C61.5533 28.28 59.5 28.52 57.58 29C55.66 29.48 53.9533 30.2533 52.46 31.32C50.9667 32.3333 49.7933 33.6667 48.94 35.32C48.0867 36.92 47.66 38.8667 47.66 41.16Z" fill="black"/>
</svg>
