<svg width="40" height="40" viewBox="0 0 40 40" fill="none" xmlns="http://www.w3.org/2000/svg">
<path d="M20 1.875C9.99 1.875 1.875 9.99 1.875 20C1.875 30.01 9.99 38.125 20 38.125C30.01 38.125 38.125 30.01 38.125 20C38.125 9.99 30.01 1.875 20 1.875ZM20 3.125C23.1259 3.125 26.0469 3.985 28.5571 5.46631L27.876 7.13013C27.8079 7.297 27.8149 7.48645 27.8955 7.64771L28.4827 8.82324L27.2229 10.083C27.1748 10.1305 27.1357 10.1854 27.1057 10.2454L26.875 10.7068L26.6455 10.2454C26.5393 10.0335 26.3221 9.8999 26.0852 9.8999H23.717C23.5514 9.8999 23.3926 9.96551 23.2751 10.083L20.1184 13.2397C20.0009 13.3566 19.9353 13.516 19.9353 13.6816C19.9353 13.8473 20.0009 14.006 20.1184 14.1235L22.2083 16.2146H21.3501C21.1845 16.2146 21.0257 16.2802 20.9082 16.3977L17.9333 19.3726H16.6138C16.2688 19.3726 15.9888 19.6526 15.9888 19.9976V21.5759C15.9888 21.9209 16.2688 22.2009 16.6138 22.2009H18.1921C18.3578 22.2009 18.5165 22.1353 18.634 22.0178L20.1086 20.5432L21.8835 19.9524L23.197 21.9226C23.3133 22.097 23.5089 22.2009 23.717 22.2009C23.7295 22.2009 23.7436 22.2003 23.7561 22.1997C23.9786 22.186 24.1761 22.0548 24.2761 21.8555L24.8645 20.6799L25.4919 22.5623C25.554 22.7477 25.6977 22.8868 25.874 22.9504L23.7878 23.2983L20.0037 21.7847C19.8543 21.7253 19.688 21.7253 19.5386 21.7847L15.592 23.363C15.4502 23.4199 15.3349 23.5265 15.2661 23.6633L13.6865 26.8201C13.6196 26.9532 13.6027 27.1072 13.6389 27.2522L14.4287 30.4089C14.4806 30.6158 14.6345 30.7833 14.8376 30.8508L17.2058 31.6394C17.3339 31.6819 17.4713 31.6819 17.6001 31.6394L19.6777 30.9473L21.5137 32.1716V34.9939C21.5137 35.1595 21.5793 35.3183 21.6968 35.4358L22.876 36.615C22.1799 36.7348 21.4733 36.825 20.7507 36.8567C20.7507 36.8611 20.7495 36.8651 20.7495 36.8689H20.2478C20.1647 36.8701 20.0831 36.875 20 36.875C10.68 36.875 3.125 29.32 3.125 20C3.125 19.585 3.14505 19.1752 3.17505 18.7671C3.1813 18.684 3.18648 18.6018 3.19336 18.5193C3.22412 18.1631 3.27029 17.8114 3.32275 17.4622C3.40955 17.4331 3.49211 17.3899 3.56201 17.3218L4.89258 16.0193L6.073 16.6089C6.25237 16.6983 6.46557 16.6971 6.64307 16.604C6.82119 16.5109 6.94331 16.3377 6.97144 16.1389L7.70508 10.9961L8.8855 10.6018V11.3147C8.8855 11.5316 8.99716 11.732 9.18091 11.8457C9.28153 11.9076 9.39612 11.9397 9.5105 11.9397C9.60612 11.9397 9.70069 11.9169 9.78882 11.8726L12.8149 10.3601H14.2456C14.4544 10.3601 14.6494 10.2568 14.7656 10.083L16.344 7.71484C16.4684 7.52859 16.4831 7.28925 16.3831 7.08862L15.5933 5.50903C15.5189 5.36091 15.3894 5.24903 15.2319 5.19653C15.0751 5.14403 14.9028 5.15574 14.7546 5.22949L14.0808 5.56763V5C14.0808 4.69555 13.8589 4.45366 13.5706 4.39819C15.5525 3.58008 17.7223 3.125 20 3.125ZM11.5393 5.625H12.8308V6.57959C12.8308 6.79646 12.9437 6.99807 13.1274 7.11182C13.3118 7.22557 13.5416 7.23492 13.7354 7.13867L14.7546 6.62842L15.1025 7.32422L13.9111 9.11133H12.6672C12.5704 9.11133 12.4746 9.13412 12.3877 9.17725L10.1355 10.3027V9.83643L11.5393 5.625ZM29.6265 6.15356C32.6764 8.27816 34.9997 11.3739 36.123 15.0037C36.1237 15.0024 36.1242 15.0013 36.1255 15C36.1574 15.105 36.1809 15.2118 36.2109 15.3174C36.2672 15.5124 36.3227 15.7076 36.3721 15.9058C36.3896 15.9776 36.4052 16.05 36.4221 16.1218C36.4865 16.3962 36.5448 16.6725 36.5955 16.9519C36.5967 16.96 36.5991 16.9676 36.6003 16.9751H36.5991C36.7766 17.957 36.875 18.9669 36.875 20C36.875 20.6599 36.8276 21.3084 36.7529 21.9482L36.0168 21.1511C35.8618 20.9836 35.6265 20.9136 35.4053 20.9692L32.2485 21.7578C31.9704 21.8272 31.7749 22.0776 31.7749 22.3645V23.1543C31.7749 23.3912 31.9085 23.6078 32.1204 23.7134L33.1396 24.2236L31.9336 26.6345L31.1011 27.0508L29.0771 23.0042V22.3633C29.0771 22.0183 28.7971 21.7383 28.4521 21.7383H26.5344L26.0742 20.3564L29.436 19.0125C29.4394 19.0113 29.4424 19.01 29.4458 19.0088L29.4739 18.9978C29.4938 18.9899 29.5066 18.9733 29.5251 18.9636C29.5755 18.9375 29.6246 18.9104 29.6667 18.8708C29.6922 18.847 29.7081 18.8176 29.729 18.7903C29.7528 18.7592 29.7828 18.735 29.801 18.6987C29.8048 18.6913 29.8037 18.6831 29.8071 18.6755C29.8231 18.6407 29.8283 18.603 29.8376 18.5657C29.8477 18.5246 29.8617 18.4849 29.8633 18.4436C29.8648 18.4085 29.8544 18.3741 29.8499 18.3386C29.8437 18.2929 29.8413 18.2475 29.8254 18.2043C29.8231 18.1979 29.8243 18.1912 29.8218 18.1848C29.8097 18.1547 29.7865 18.1338 29.7705 18.1067C29.7486 18.0695 29.7305 18.0315 29.7009 17.9993C29.6645 17.9592 29.62 17.9317 29.5752 17.9028C29.5557 17.8902 29.5428 17.8708 29.5215 17.8601L29.4885 17.843H29.4861L27.9431 17.0703C27.6331 16.9153 27.2589 17.0417 27.1045 17.3499L26.4307 18.6963L24.3079 19.4043C24.151 19.4568 24.0209 19.5699 23.9465 19.718L23.6389 20.332L22.6587 18.8611C22.5024 18.6267 22.2078 18.5251 21.9409 18.6145L19.7168 19.3567L21.6077 17.4646H23.717C23.7918 17.4646 23.8624 17.4471 23.9307 17.4219C23.9431 17.4174 23.9551 17.4138 23.9673 17.4084C24.0335 17.3792 24.0952 17.3405 24.1479 17.29C24.1517 17.2865 24.1565 17.2852 24.1602 17.2815C24.168 17.2737 24.1699 17.2628 24.1772 17.2546C24.1975 17.2323 24.22 17.2117 24.2371 17.1863L25.8154 14.8193C25.9811 14.5712 25.9479 14.2402 25.7373 14.0295L24.9487 13.241C24.7044 12.9966 24.3093 12.9966 24.0649 13.241C23.8206 13.4853 23.8206 13.8804 24.0649 14.1248L24.4922 14.552L23.6206 15.8582L21.4441 13.6816L23.9771 11.1499H25.6995L26.3159 12.3828C26.4222 12.5947 26.6381 12.7283 26.875 12.7283C27.1119 12.7283 27.3285 12.5947 27.4341 12.3828L28.1787 10.8948L29.6851 9.38843C29.8757 9.19843 29.9222 8.90762 29.8022 8.66699L29.1394 7.34131L29.6265 6.15356ZM9.94507 6.45264L9.01611 9.24194L6.94336 9.93164C6.71898 10.006 6.55656 10.2014 6.52344 10.4358L5.85571 15.1025L5.05371 14.7009C4.81496 14.5816 4.52656 14.627 4.33594 14.8132L3.7793 15.3577C4.81003 11.7491 7.01026 8.63575 9.94507 6.45264ZM17.4646 12.8943C17.3623 12.8863 17.2558 12.8983 17.1521 12.9333C16.7383 13.0715 16.5159 13.5181 16.6541 13.9319L16.8945 14.6558C16.877 14.6701 16.8614 14.6853 16.8445 14.7021L16.0547 15.4919C15.8291 15.7182 15.7613 16.0575 15.8838 16.3525C16.0063 16.6469 16.2938 16.8396 16.6125 16.8396H18.1921C18.4459 16.8396 18.6837 16.7181 18.8318 16.5112C18.9799 16.305 19.0211 16.0402 18.9404 15.7996L18.1519 13.4314C18.0487 13.122 17.7716 12.9182 17.4646 12.8943ZM18.2666 20.6177L17.9333 20.9509H17.2388V20.6226H18.1921C18.2165 20.6226 18.2422 20.6202 18.2666 20.6177ZM35.3503 22.2717L36.4172 23.4241C36.4437 23.4528 36.4774 23.4674 36.5076 23.49C36.4332 23.8413 36.3503 24.1894 36.2549 24.5325C36.253 24.5381 36.2519 24.5439 36.25 24.5496H36.2488C35.0973 28.6702 32.4157 32.1435 28.8623 34.3445L30.5676 31.3684L32.9358 27.4219C32.9393 27.4161 32.9398 27.4094 32.9431 27.4036C32.9478 27.3952 32.9547 27.389 32.959 27.3804L34.5374 24.2236C34.6917 23.9149 34.5666 23.5382 34.2578 23.3838L33.1384 22.8247L35.3503 22.2717ZM19.7705 23.0383L23.4839 24.5239C23.5901 24.5664 23.7052 24.5799 23.8196 24.5605L28.1006 23.8464L30.2612 28.1689C30.3356 28.3171 30.4657 28.4302 30.6226 28.4827C30.6869 28.5039 30.7541 28.5144 30.8203 28.5144H30.8215L29.4885 30.7361L26.8909 35.271C26.8649 35.3165 26.8569 35.3656 26.8433 35.4138C26.0209 35.7796 25.1641 36.0805 24.2786 36.3123C24.2485 36.2475 24.2125 36.1839 24.1589 36.1304L22.7637 34.7351V31.8372C22.7637 31.6284 22.6591 31.4334 22.4854 31.3171L20.1172 29.7375C19.9572 29.63 19.7559 29.6049 19.5728 29.6655L17.4023 30.3882L15.5579 29.7742L14.9072 27.1729L16.2769 24.436L19.7705 23.0383ZM7.08008 23.8501C6.99906 23.8447 6.91522 23.8546 6.8335 23.8831L5.65308 24.292C5.32683 24.4051 5.15299 24.7623 5.26611 25.0879C5.35549 25.346 5.59756 25.5078 5.85693 25.5078C5.92443 25.5078 5.99329 25.4968 6.06079 25.4736L7.24243 25.0647C7.56868 24.9516 7.7413 24.5944 7.62817 24.2688C7.54333 24.0241 7.32312 23.8663 7.08008 23.8501ZM8.02856 26.1963C7.948 26.2062 7.86797 26.2314 7.79297 26.2744L6.70898 26.8982C6.40961 27.0701 6.30762 27.4521 6.47949 27.7515C6.59512 27.9521 6.80523 28.0652 7.02148 28.0652C7.12711 28.0652 7.23526 28.0384 7.33276 27.9822L8.41675 27.3584C8.71612 27.1865 8.81812 26.8045 8.64624 26.5051C8.51687 26.2806 8.27026 26.1666 8.02856 26.1963ZM9.64111 28.2959C9.48166 28.2835 9.31795 28.3314 9.18701 28.4436L8.23731 29.2566C7.97543 29.481 7.94457 29.8761 8.16894 30.1379C8.29269 30.2823 8.46755 30.3564 8.6438 30.3564C8.78755 30.3564 8.93217 30.3075 9.05029 30.2063L10 29.3933C10.2619 29.1689 10.2927 28.7738 10.0684 28.512C9.95586 28.3813 9.80057 28.3083 9.64111 28.2959Z" fill="#848484"/>
</svg>
