<svg width="40" height="40" viewBox="0 0 40 40" fill="none" xmlns="http://www.w3.org/2000/svg">
<path d="M32.7457 6.42854H29.2857V4.92568C29.2857 3.39139 28.0371 2.14282 26.5029 2.14282H7.78286C6.24857 2.14282 5 3.39139 5 4.92568V35.0743C5 36.6085 6.24857 37.8571 7.78286 37.8571H26.5029C28.0371 37.8571 29.2857 36.6085 29.2857 35.0743V22.8571C29.2857 22.4628 28.9657 22.1428 28.5714 22.1428C28.1771 22.1428 27.8571 22.4628 27.8571 22.8571V30.7143H6.42857V4.92568C6.42857 4.17997 7.03571 3.57139 7.78286 3.57139H26.5029C27.2486 3.57139 27.8571 4.17854 27.8571 4.92568V6.42854H15.8257C14.5829 6.42854 13.5714 7.43997 13.5714 8.68282V18.46C13.5714 19.7028 14.5829 20.7143 15.8257 20.7143H32.7457C33.9886 20.7143 35 19.7028 35 18.46V8.68282C35 7.43997 33.9886 6.42854 32.7457 6.42854ZM27.8571 32.1428V35.0743C27.8571 35.82 27.25 36.4285 26.5029 36.4285H7.78286C7.03714 36.4285 6.42857 35.8214 6.42857 35.0743V32.1428H27.8571ZM15.8257 7.85711H32.7457C33.2014 7.85711 33.5714 8.22711 33.5714 8.68282V9.28568H15V8.68282C15 8.22711 15.37 7.85711 15.8257 7.85711ZM32.7457 19.2857H15.8257C15.37 19.2857 15 18.9157 15 18.46V10.7143H33.5714V18.46C33.5714 18.9157 33.2014 19.2857 32.7457 19.2857Z" fill="#848484"/>
<path d="M19.9999 16.4286H17.1428C16.7485 16.4286 16.4285 16.7486 16.4285 17.1429C16.4285 17.5372 16.7485 17.8572 17.1428 17.8572H19.9999C20.3942 17.8572 20.7142 17.5372 20.7142 17.1429C20.7142 16.7486 20.3942 16.4286 19.9999 16.4286Z" fill="#848484"/>
<path d="M15.7143 35H18.5714C18.9657 35 19.2857 34.68 19.2857 34.2857C19.2857 33.8914 18.9657 33.5714 18.5714 33.5714H15.7143C15.32 33.5714 15 33.8914 15 34.2857C15 34.68 15.32 35 15.7143 35Z" fill="#848484"/>
</svg>
