<svg width="40" height="40" viewBox="0 0 40 40" fill="none" xmlns="http://www.w3.org/2000/svg">
<path d="M10.2149 4.94463C9.97756 4.97916 9.74358 5.08223 9.54108 5.27015L2.15501 12.1191C1.50334 12.7691 1.50334 13.8242 2.15501 14.4759L9.54108 21.3281C10.3511 22.0798 11.6667 21.5021 11.6667 20.3971V15H27.5001C31.6326 15 35.0001 18.3674 35.0001 22.5C35.0001 26.6325 31.6326 30 27.5001 30H26.6667C26.4459 29.9968 26.2266 30.0376 26.0217 30.12C25.8167 30.2024 25.6302 30.3246 25.4729 30.4797C25.3156 30.6348 25.1907 30.8196 25.1055 31.0233C25.0202 31.2271 24.9763 31.4458 24.9763 31.6666C24.9763 31.8875 25.0202 32.1062 25.1055 32.3099C25.1907 32.5137 25.3156 32.6985 25.4729 32.8536C25.6302 33.0086 25.8167 33.1309 26.0217 33.2133C26.2266 33.2956 26.4459 33.3364 26.6667 33.3333H27.5001C33.4508 33.3333 38.3334 28.4507 38.3334 22.5C38.3334 16.5492 33.4508 11.6666 27.5001 11.6666H11.6667V6.20114C11.6667 5.37239 10.9269 4.84103 10.2149 4.94463ZM6.66673 30C5.74673 30 5.00006 30.7466 5.00006 31.6666C5.00006 32.5866 5.74673 33.3333 6.66673 33.3333C7.58673 33.3333 8.3334 32.5866 8.3334 31.6666C8.3334 30.7466 7.58673 30 6.66673 30ZM13.3334 30C12.4134 30 11.6667 30.7466 11.6667 31.6666C11.6667 32.5866 12.4134 33.3333 13.3334 33.3333C14.2534 33.3333 15.0001 32.5866 15.0001 31.6666C15.0001 30.7466 14.2534 30 13.3334 30ZM20.0001 30C19.0801 30 18.3334 30.7466 18.3334 31.6666C18.3334 32.5866 19.0801 33.3333 20.0001 33.3333C20.9201 33.3333 21.6667 32.5866 21.6667 31.6666C21.6667 30.7466 20.9201 30 20.0001 30Z" fill="#848484"/>
</svg>
