<svg width="64" height="64" viewBox="0 0 64 64" fill="none" xmlns="http://www.w3.org/2000/svg">
<path d="M56 28.9988C56.55 28.9988 57 28.5488 57 27.9988V18.9988C57 18.4488 56.55 17.9988 56 17.9988H43.36C43.77 16.6988 44 15.3188 44 13.8987V9.99873C44 9.55873 43.71 9.1587 43.28 9.03871L36.42 7.03871C36.24 6.98872 36.05 6.98872 35.86 7.03871L29.01 9.03871C28.58 9.15871 28.29 9.55873 28.29 9.99873V13.8987C28.29 15.3188 28.51 16.6988 28.93 17.9988H17.81L16.98 13.8088C16.89 13.3387 16.48 12.9988 16 12.9988H8C7.45001 12.9988 7 13.4488 7 13.9988C7 14.5488 7.45001 14.9988 8 14.9988H15.18L20.67 42.6487C20.99 44.0287 22.19 44.9988 23.6 44.9988C23.66 44.9988 53 44.9988 53 44.9988C54.1 44.9988 55 45.8987 55 46.9988C55 48.0987 54.1 48.9988 53 48.9988H26C23.79 48.9988 22 50.7887 22 52.9988C22 55.2087 23.79 56.9988 26 56.9988C28.21 56.9988 30 55.2087 30 52.9988C30 52.2687 29.79 51.5887 29.44 50.9988H44.56C44.21 51.5887 44 52.2687 44 52.9988C44 55.2087 45.79 56.9988 48 56.9988C50.21 56.9988 52 55.2087 52 52.9988C52 52.2687 51.79 51.5887 51.44 50.9988H53C55.21 50.9988 57 49.2087 57 46.9988C57 44.7887 55.21 42.9988 53 42.9988H34.49L56.18 38.9787C56.66 38.8987 57 38.4787 57 37.9988V35.9988C57 35.4488 56.55 34.9988 56 34.9988C55.45 34.9988 55 35.4488 55 35.9988V37.1687L23.52 42.9988C23.09 42.9587 22.73 42.6487 22.63 42.2388L19.4 25.9988H55V27.9988C55 28.5487 55.45 28.9988 56 28.9988ZM26 54.9988C24.9 54.9988 24 54.0987 24 52.9988C24 51.8987 24.9 50.9988 26 50.9988C27.1 50.9988 28 51.8987 28 52.9988C28 54.0987 27.1 54.9988 26 54.9988ZM48 54.9988C46.9 54.9988 46 54.0987 46 52.9988C46 51.8987 46.9 50.9988 48 50.9988C49.1 50.9988 50 51.8987 50 52.9988C50 54.0987 49.1 54.9988 48 54.9988ZM19.01 23.9988L18.21 19.9988H29.74C30.51 21.5088 31.57 22.8688 32.87 23.9988H19.01ZM36.14 23.8688C33.97 22.6587 32.3 20.8088 31.31 18.6188C31.31 18.6087 31.3 18.5987 31.3 18.5887C30.65 17.1388 30.29 15.5588 30.29 13.8987V10.7488L36.14 9.03871L42 10.7488V13.8987C42 18.0787 39.77 21.8587 36.14 23.8688ZM39.41 23.9988C40.71 22.8688 41.77 21.5088 42.54 19.9988H55V23.9988H39.41Z" fill="#848484"/>
<path d="M34.436 17.7058C34.6294 17.8992 34.8853 17.9988 35.1436 17.9988C35.3354 17.9988 35.5288 17.9436 35.6978 17.8308L38.6978 15.8308C39.1572 15.5247 39.2813 14.9036 38.9751 14.4441C38.668 13.9841 38.0478 13.8596 37.5884 14.1667L35.2705 15.7122L34.8501 15.2917C34.4595 14.9011 33.8267 14.9011 33.436 15.2917C33.0454 15.6824 33.0454 16.3152 33.436 16.7058L34.436 17.7058Z" fill="#848484"/>
<path d="M56 32.9988C56.5523 32.9988 57 32.5511 57 31.9988C57 31.4465 56.5523 30.9988 56 30.9988C55.4477 30.9988 55 31.4465 55 31.9988C55 32.5511 55.4477 32.9988 56 32.9988Z" fill="#848484"/>
</svg>
